<svg xmlns="http://www.w3.org/2000/svg" viewBox="0 0 17.67 22"><defs><style>.cls-1{fill:#fff;}</style></defs><title>Asset 1</title><g id="Layer_2" data-name="Layer 2"><g id="Layer_1-2" data-name="Layer 1"><rect class="cls-1" x="4.79" width="8.09" height="1.58"/><path class="cls-1" d="M6.16,11.45a1,1,0,1,1,1,1A1,1,0,0,1,6.16,11.45Z"/><path class="cls-1" d="M17,16.05l-4.4-7.62-.09-5.24V1.56h-1V4l.07,4.75,4.54,7.86a3.24,3.24,0,0,1,.45,2.6A3.21,3.21,0,0,1,15,20.92H2.59a2.43,2.43,0,0,1-1.45-1.49,3.86,3.86,0,0,1,.57-2.74l4.45-8V4h0V1.56h-1l0,6.79L.82,16.12a4.91,4.91,0,0,0-.69,3.62A3.53,3.53,0,0,0,2.28,22l.09,0H15.21l.1,0a4.33,4.33,0,0,0,2.19-2.41A4.36,4.36,0,0,0,17,16.05Z"/><path class="cls-1" d="M3.4,19.92H14.59A1.49,1.49,0,0,0,14.88,18s-2.61-3.69-3.33-4.8-2.19-.36-2.19-.36c-1.31,2-3.79.94-3.79.94a37.62,37.62,0,0,1-2,3.55C2.47,19,3.11,19.69,3.4,19.92Zm3.3-3.33a1.25,1.25,0,0,1,0,2.49,1.25,1.25,0,1,1,0-2.49Zm3.63-2.08a1.25,1.25,0,1,1-1.25,1.25A1.25,1.25,0,0,1,10.33,14.51Z"/><path class="cls-1" d="M8.37,6.53a1,1,0,1,1,1,1A1,1,0,0,1,8.37,6.53Z"/></g></g></svg>