<svg xmlns="http://www.w3.org/2000/svg" viewBox="0 0 19.43 21.03"><defs><style>.cls-1{fill:#fff;}</style></defs><title>Asset 2</title><g id="Layer_2" data-name="Layer 2"><g id="Layer_1-2" data-name="Layer 1"><path class="cls-1" d="M16,8.75C11.15,4,1.1,2.1.92,2.57S-2.72,8.86,5.05,14.42,19.12,15,19.12,15,20.88,13.47,16,8.75Zm.07,4.79S4.47,10.71,2.1,5c0,0-.91-1.9,1.39-1.21s12.2,3.44,14.57,9.44C18.06,13.23,18.18,13.9,16.08,13.54Z"/><line class="cls-1" x1="4.23" y1="8.95" x2="12.55" y2="2.1"/><rect class="cls-1" x="3" y="5.27" width="10.78" height="0.51" transform="translate(-1.6 6.58) rotate(-39.42)"/><line class="cls-1" x1="12.3" y1="13.27" x2="13.92" y2="3.54"/><rect class="cls-1" x="8.18" y="8.15" width="9.87" height="0.51" transform="translate(2.67 19.95) rotate(-80.56)"/><path class="cls-1" d="M15.36,2.6A2.09,2.09,0,1,1,13.83.06,2.1,2.1,0,0,1,15.36,2.6Z"/><path class="cls-1" d="M3.16,21h8.07l-.78-2.18A10,10,0,0,1,4.8,16.57Z"/></g></g></svg>