<svg xmlns="http://www.w3.org/2000/svg" viewBox="0 0 48.15 50"><defs><style>.cls-1{fill:#ce2128;}.cls-2{fill:#ce2128;}.cls-3{fill:#fff;}</style></defs><title>Asset 5</title><g id="Layer_2" data-name="Layer 2"><g id="Layer_1-2" data-name="Layer 1"><path class="cls-1" d="M45.93,5.36a3.47,3.47,0,0,1,2.22.8V0h-6a3.51,3.51,0,1,1-5.69,0h-6V5.93a3.5,3.5,0,1,0-1.9,6.44,3.43,3.43,0,0,0,1.9-.57v5.93h6a3.5,3.5,0,1,1,6.41-2,3.4,3.4,0,0,1-.59,2h6V11.58a3.5,3.5,0,1,1-2.22-6.22Z"/><path class="cls-2" d="M43.14,32.19a3.46,3.46,0,0,0-1.91.57V26.82H35.28a3.46,3.46,0,0,0,.59-1.93,3.51,3.51,0,1,0-6.43,1.93H23.5v6.09a3.5,3.5,0,1,1,0,5.56v6.09h5.95a3.51,3.51,0,1,0,5.83,0h5.95V38.62a3.46,3.46,0,0,0,1.91.57,3.5,3.5,0,0,0,0-7Z"/><path class="cls-2" d="M21.1,13.76a3.48,3.48,0,0,1,2,.66v-6H17.19a3.51,3.51,0,1,1-5.83,0H5.41v5.93a3.54,3.54,0,0,0-1.91-.57,3.51,3.51,0,0,0,0,7,3.46,3.46,0,0,0,1.91-.57v5.93h5.85a3.51,3.51,0,1,0,6,0h5.85v-6a3.5,3.5,0,1,1-2-6.35Z"/><path class="cls-3" d="M24.71,32.19a3.5,3.5,0,0,0-1.86.55V26.83h-6a3.51,3.51,0,1,1-5.83,0H5.12v5.85a3.43,3.43,0,0,1,1.77-.49,3.51,3.51,0,0,1,0,7,3.43,3.43,0,0,1-1.77-.49v5.85h6a3.46,3.46,0,0,1-.6-2,3.51,3.51,0,0,1,7,0,3.46,3.46,0,0,1-.6,2h6V38.65a3.5,3.5,0,1,0,1.86-6.46Z"/></g></g></svg>
