<svg xmlns="http://www.w3.org/2000/svg" viewBox="0 0 47.73 50"><defs><style>.cls-1{fill:#fff;}.cls-2{fill:#fff;}</style></defs><title>Asset 3</title><g id="Layer_2" data-name="Layer 2"><g id="Layer_1-2" data-name="Layer 1"><path class="cls-1" d="M36.07,37V32.81l-3.13-.49a12,12,0,0,0-1.67-4l1.87-2.57-3-3L27.6,24.63a12.1,12.1,0,0,0-4-1.67l-.49-3.13H18.88L18.39,23a12,12,0,0,0-4,1.67L11.8,22.76l-3,3L10.7,28.3a12,12,0,0,0-1.67,4l-3.13.49V37L9,37.51a12.1,12.1,0,0,0,1.67,4L8.83,44.09l3,3,2.57-1.87a12,12,0,0,0,4,1.67L18.88,50h4.21l.49-3.13a12.1,12.1,0,0,0,4-1.67l2.56,1.87,3-3-1.87-2.56a12.1,12.1,0,0,0,1.67-4ZM21,42.68a7.77,7.77,0,1,1,7.77-7.77A7.77,7.77,0,0,1,21,42.68Z"/><path class="cls-2" d="M47.73,24v-4.2l-3.13-.49a12.07,12.07,0,0,0-1.67-4l1.87-2.56-3-3-2.57,1.87a12.32,12.32,0,0,0-4-1.67l-.49-3.13H30.54L30.05,10a12.32,12.32,0,0,0-4,1.67L23.46,9.78l-3,3,1.87,2.56a12.07,12.07,0,0,0-1.67,4l-3.13.49V24l3.13.49a12.16,12.16,0,0,0,1.67,4l-1.87,2.56,3,3L26,32.22a12.12,12.12,0,0,0,4,1.68L30.54,37h4.21l.49-3.13a12.12,12.12,0,0,0,4-1.68l2.57,1.87,3-3-1.87-2.56a12.16,12.16,0,0,0,1.67-4ZM32.64,29.7a7.77,7.77,0,1,1,7.77-7.76A7.76,7.76,0,0,1,32.64,29.7Z"/><circle class="cls-2" cx="32.64" cy="21.94" r="5.56"/><path class="cls-1" d="M19.49,11.16l2.13-.73-.51-2.94-2.25,0a8.57,8.57,0,0,0-1.67-2.61l1-2L15.74,1.18,14.18,2.81a8.63,8.63,0,0,0-3-.68L10.43,0,7.49.52l0,2.25A8.36,8.36,0,0,0,4.92,4.43l-2-1L1.18,5.88,2.81,7.45a8.53,8.53,0,0,0-.68,3L0,11.19l.52,2.94,2.25,0A8.36,8.36,0,0,0,4.43,16.7l-1,2,2.44,1.71,1.57-1.62a8.52,8.52,0,0,0,3,.67l.72,2.13,2.94-.51,0-2.25a8.57,8.57,0,0,0,2.61-1.67l2,1,1.71-2.45-1.62-1.56A8.62,8.62,0,0,0,19.49,11.16Zm-7.73,5.08a5.51,5.51,0,1,1,4.48-6.38A5.52,5.52,0,0,1,11.76,16.24Z"/></g></g></svg>
