<svg xmlns="http://www.w3.org/2000/svg" viewBox="0 0 86.79 72.67"><defs><style>.cls-1{fill:#304758;}.cls-2{fill:#fff;}.cls-3{fill:#fff;}.cls-4{fill:#304758;}</style></defs><title>Asset 2</title><g id="Layer_2" data-name="Layer 2"><g id="Layer_1-2" data-name="Layer 1"><path class="cls-1" d="M0,34.84l.74-1.78m0-6.33L0,25m1.18,5.91V28.93"/><path class="cls-2" d="M12.85,28.61v-1.9H11.2a4.46,4.46,0,0,0-.51-1.39l1.12-1.12-1.34-1.34L9.41,23.91A4.27,4.27,0,0,0,8,23.29V21.82H6.06v1.47a4.27,4.27,0,0,0-1.45.62L3.56,22.86,2.21,24.2l1.12,1.12a4.21,4.21,0,0,0-.5,1.39H1.18v1.9H2.94a4.37,4.37,0,0,0,.56,1.22L2.21,31.11l1.35,1.35,1.35-1.35a4.61,4.61,0,0,0,1.15.46v1.92H8V31.57a4.53,4.53,0,0,0,1.16-.46l1.35,1.35,1.34-1.35-1.29-1.28a4.1,4.1,0,0,0,.56-1.22Z"/><path class="cls-2" d="M57.7,48.12a9.2,9.2,0,1,0-15,7.12A7.41,7.41,0,0,1,45.53,61v.4h5.95V61a7.22,7.22,0,0,1,2.75-5.66A9.19,9.19,0,0,0,57.7,48.12Z"/><rect class="cls-3" x="44.69" y="61.37" width="7.64" height="5.35"/><path class="cls-4" d="M48.5,52a6.18,6.18,0,0,1-4-1.54,6.19,6.19,0,0,1-1.54-4l.5-.5h0a6.25,6.25,0,0,1,4,1.54,6.21,6.21,0,0,1,1.53,4l-.49.5ZM44,47a4.91,4.91,0,0,0,1.2,2.76A4.84,4.84,0,0,0,48,50.91a4.87,4.87,0,0,0-1.2-2.77A4.86,4.86,0,0,0,44,47Z"/><path class="cls-4" d="M48.51,52h0l-.5-.5a6.25,6.25,0,0,1,1.54-4,6.16,6.16,0,0,1,4-1.54l.5.5a6.19,6.19,0,0,1-1.54,4A6.18,6.18,0,0,1,48.51,52ZM53,47a4.09,4.09,0,0,0-4,3.95,4.82,4.82,0,0,0,2.76-1.19A4.87,4.87,0,0,0,53,47Z"/><rect class="cls-4" x="48" y="51.45" width="1" height="9.92"/><path class="cls-3" d="M48,69.12V64a.51.51,0,0,1,.5-.5.5.5,0,0,1,.5.5v5.08"/><rect class="cls-2" x="32.57" y="32.27" width="1" height="6.66"/><rect class="cls-2" x="29.74" y="35.1" width="6.66" height="1"/><rect class="cls-2" x="48.57" y="18.49" width="1" height="6.66"/><rect class="cls-2" x="45.74" y="21.32" width="6.66" height="1"/><rect class="cls-2" x="32.57" y="8.66" width="1" height="6.66"/><rect class="cls-2" x="29.74" y="11.49" width="6.66" height="1"/><rect class="cls-2" x="48.57" width="1" height="6.66"/><rect class="cls-2" x="45.74" y="2.83" width="6.66" height="1"/><path class="cls-2" d="M66.53,34.9h-1a5.18,5.18,0,0,0-5-5v-1a5.17,5.17,0,0,0,5-5h1a5.18,5.18,0,0,0,5,5v1A5.19,5.19,0,0,0,66.53,34.9Zm-3.66-5.48A6.38,6.38,0,0,1,66,32.59a6.43,6.43,0,0,1,3.17-3.17A6.36,6.36,0,0,1,66,26.25,6.3,6.3,0,0,1,62.87,29.42Z"/><path class="cls-2" d="M81.81,72.19h-1a5.17,5.17,0,0,0-5-5v-1a5.18,5.18,0,0,0,5-5h1a5.18,5.18,0,0,0,5,5v1A5.17,5.17,0,0,0,81.81,72.19Zm-3.67-5.47a6.28,6.28,0,0,1,3.17,3.17,6.28,6.28,0,0,1,3.17-3.17,6.36,6.36,0,0,1-3.17-3.17A6.36,6.36,0,0,1,78.14,66.72Z"/><path class="cls-2" d="M76.75,44.87l-4-4v-.7l4-4h.71l4,4v.7l-4,4Zm-3-4.38,3.32,3.32,3.32-3.32L77.1,37.17Z"/><path class="cls-2" d="M66.39,54.53h-.71l-4-4v-.7l4-4h.71l4,4v.7Zm-3.68-4.38L66,53.47l3.33-3.32L66,46.83Z"/><path class="cls-2" d="M62.83,15.82a2.77,2.77,0,1,1,2.77-2.77A2.77,2.77,0,0,1,62.83,15.82Zm0-4.54a1.77,1.77,0,1,0,1.77,1.77A1.77,1.77,0,0,0,62.83,11.28Z"/><path class="cls-2" d="M12.76,5.28a2.42,2.42,0,1,1,2.42-2.42A2.42,2.42,0,0,1,12.76,5.28Zm0-3.84a1.42,1.42,0,1,0,1.42,1.42A1.41,1.41,0,0,0,12.76,1.44Z"/><path class="cls-2" d="M28.93,72.67a3.23,3.23,0,1,1,3.23-3.23A3.23,3.23,0,0,1,28.93,72.67Zm0-5.45a2.23,2.23,0,1,0,2.23,2.22A2.23,2.23,0,0,0,28.93,67.22Z"/><path class="cls-2" d="M29.53,54.89a2.62,2.62,0,1,1,2.63-2.62A2.62,2.62,0,0,1,29.53,54.89Zm0-4.24a1.62,1.62,0,1,0,1.63,1.62A1.63,1.63,0,0,0,29.53,50.65Z"/></g></g></svg>
