<svg xmlns="http://www.w3.org/2000/svg" viewBox="0 0 51 51"><defs><style>.cls-1{fill:#fff;}.cls-2{fill:#ce2128;}</style></defs><title>Asset 4</title><g id="Layer_2" data-name="Layer 2"><g id="Layer_1-2" data-name="Layer 1"><path class="cls-1" d="M31,25.5A5.46,5.46,0,1,1,25.5,20,5.47,5.47,0,0,1,31,25.5Z"/><path class="cls-1" d="M25.5,51c-5,0-9-11.2-9-25.5S20.47,0,25.5,0s9,11.2,9,25.5S30.53,51,25.5,51Zm0-50c-4.32,0-8,11.22-8,24.5S21.18,50,25.5,50s8-11.22,8-24.5S29.82,1,25.5,1Z"/><path class="cls-1" d="M25.5,34.46c-14.3,0-25.5-3.93-25.5-9s11.2-9,25.5-9S51,20.47,51,25.5,39.8,34.46,25.5,34.46Zm0-16.92c-13.28,0-24.5,3.64-24.5,8s11.22,8,24.5,8S50,29.82,50,25.5,38.78,17.54,25.5,17.54Z"/><path class="cls-1" d="M40.34,44.66c-4.92,0-13.23-4.88-21.18-12.82h0A57.72,57.72,0,0,1,8.32,17.45C6,12.78,5.71,9.23,7.47,7.47s5.31-1.46,10,.85A57.72,57.72,0,0,1,31.84,19.16C42,29.27,47.09,40,43.53,43.53A4.35,4.35,0,0,1,40.34,44.66ZM19.87,31.13c9.39,9.39,19.9,14.75,23,11.69s-2.3-13.56-11.69-22.95A56.49,56.49,0,0,0,17,9.22c-4.2-2.08-7.42-2.46-8.83-1s-1,4.63,1,8.83A56.49,56.49,0,0,0,19.87,31.13Z"/><path class="cls-1" d="M10.66,44.66a4.35,4.35,0,0,1-3.19-1.13C3.91,40,9.05,29.27,19.16,19.16h0A57.72,57.72,0,0,1,33.55,8.32c4.67-2.31,8.22-2.61,10-.85s1.46,5.31-.85,10A57.72,57.72,0,0,1,31.84,31.84C23.89,39.78,15.58,44.66,10.66,44.66ZM40.32,7.33A15.36,15.36,0,0,0,34,9.22,56.49,56.49,0,0,0,19.87,19.87h0c-9.39,9.39-14.75,19.9-11.69,23s13.56-2.3,23-11.69A56.49,56.49,0,0,0,41.78,17c2.08-4.2,2.46-7.42,1-8.83A3.38,3.38,0,0,0,40.32,7.33Z"/><circle class="cls-2" cx="8.56" cy="7.38" r="2.73"/><path class="cls-2" d="M46,14.51a2.73,2.73,0,1,1-2.72-2.73A2.72,2.72,0,0,1,46,14.51Z"/><circle class="cls-2" cx="3.44" cy="29.54" r="2.73"/><circle class="cls-2" cx="29.83" cy="47.03" r="2.73"/></g></g></svg>
