<svg xmlns="http://www.w3.org/2000/svg" viewBox="0 0 162.58 162.78"><defs><style>.cls-1{fill:#1e3160;}.cls-2{fill:#ce2028;}.cls-3,.cls-4{fill:none;stroke-miterlimit:10;stroke-width:18px;}.cls-3{stroke:#1e3160;}.cls-4{stroke:#ce2028;}.cls-5,.cls-6{fill:#fff;}.cls-6{font-size:33px;font-family:MyriadPro-Bold, Myriad Pro;font-weight:700;}</style></defs><title>Asset 2</title><g id="Layer_2" data-name="Layer 2"><g id="Layer_1-2" data-name="Layer 1"><ellipse class="cls-1" cx="142.28" cy="80.01" rx="20.3" ry="20.31" transform="translate(-13.79 127.83) rotate(-46.39)"/><ellipse class="cls-2" cx="79.82" cy="20.3" rx="20.3" ry="20.31" transform="translate(10.06 64.09) rotate(-46.39)"/><ellipse class="cls-1" cx="20.3" cy="82.96" rx="20.3" ry="20.31" transform="translate(-53.77 40.44) rotate(-46.39)"/><path class="cls-3" d="M40.47,42.6a56.35,56.35,0,0,1,1.93,79.72"/><path class="cls-3" d="M120.2,40.67a56.35,56.35,0,0,0,1.93,79.72"/><path class="cls-4" d="M40.47,42.6a56.37,56.37,0,0,0,79.73-1.93"/><ellipse class="cls-2" cx="82.76" cy="142.47" rx="20.3" ry="20.31" transform="translate(-77.48 104.12) rotate(-46.39)"/><rect class="cls-5" x="16.26" y="71.96" width="8.09" height="1.58"/><path class="cls-5" d="M17.63,83.42a1,1,0,1,1,1,1A1,1,0,0,1,17.63,83.42Z"/><path class="cls-5" d="M28.43,88,24,80.4l-.09-5.25V73.53h-1V76L23,80.7l4.54,7.86A3.26,3.26,0,0,1,28,91.17a3.14,3.14,0,0,1-1.52,1.71H14.06a2.44,2.44,0,0,1-1.45-1.48,3.91,3.91,0,0,1,.57-2.75l4.45-8.05V76h0V73.53h-1l0,6.79-4.29,7.76a4.93,4.93,0,0,0-.69,3.62,3.5,3.5,0,0,0,2.14,2.22l.1,0H26.68l.1,0A3.93,3.93,0,0,0,28.43,88Z"/><path class="cls-5" d="M14.87,91.89H26.06a1.5,1.5,0,0,0,.29-2s-2.61-3.69-3.33-4.8-2.19-.35-2.19-.35c-1.31,2-3.79.94-3.79.94a37.62,37.62,0,0,1-2,3.55C13.94,90.91,14.58,91.66,14.87,91.89Zm3.29-3.34a1.25,1.25,0,1,1-1.25,1.25A1.25,1.25,0,0,1,18.16,88.55Zm3.64-2.07a1.25,1.25,0,1,1-1.25,1.24A1.24,1.24,0,0,1,21.8,86.48Z"/><path class="cls-5" d="M19.84,78.49a1,1,0,1,1,1,1A1,1,0,0,1,19.84,78.49Z"/><path class="cls-5" d="M87.64,17.57c-4.87-4.72-14.92-6.65-15.1-6.18s-3.63,6.29,4.13,11.85,14.07.57,14.07.57S92.5,22.29,87.64,17.57Zm.06,4.79s-11.6-2.83-14-8.55c0,0-.91-1.89,1.4-1.2s12.2,3.44,14.56,9.44C89.68,22.05,89.8,22.71,87.7,22.36Z"/><line class="cls-5" x1="75.85" y1="17.76" x2="84.17" y2="10.92"/><rect class="cls-5" x="74.62" y="14.09" width="10.78" height="0.51" transform="translate(9.1 54.08) rotate(-39.42)"/><line class="cls-5" x1="83.92" y1="22.09" x2="85.54" y2="12.35"/><rect class="cls-5" x="79.8" y="16.97" width="9.87" height="0.51" transform="translate(53.84 97.98) rotate(-80.56)"/><path class="cls-5" d="M87,11.42a2.1,2.1,0,1,1-1.53-2.54A2.1,2.1,0,0,1,87,11.42Z"/><text class="cls-6" transform="translate(70.74 151.51)">∞</text><path class="cls-5" d="M153.21,81.22c0-.4.06-.81.06-1.22a9.71,9.71,0,0,0-.07-1.21l-3-1.06a8.41,8.41,0,0,0-.71-1.72l1.37-2.87a11.12,11.12,0,0,0-1.72-1.71l-2.87,1.36a8.81,8.81,0,0,0-1.71-.71l-1.07-3c-.4,0-.81-.07-1.22-.07a11.73,11.73,0,0,0-1.2.07l-1.07,3a8.56,8.56,0,0,0-1.71.71l-2.88-1.36a10.64,10.64,0,0,0-1.71,1.71L135.06,76a7.86,7.86,0,0,0-.7,1.72l-3,1.06a12.09,12.09,0,0,0-.07,1.21c0,.41,0,.82.07,1.22l3,1.06a7.42,7.42,0,0,0,.71,1.72l-1.37,2.87a11.13,11.13,0,0,0,1.71,1.72l2.88-1.37a8.56,8.56,0,0,0,1.71.71l1.07,3a11.73,11.73,0,0,0,1.2.07c.41,0,.82,0,1.22-.07l1.07-3a8.53,8.53,0,0,0,1.71-.7l2.88,1.37a11.59,11.59,0,0,0,1.71-1.72L149.49,84a8.09,8.09,0,0,0,.71-1.72Zm-10.94,4.29A5.5,5.5,0,1,1,147.78,80a5.5,5.5,0,0,1-5.51,5.51Z"/><path class="cls-5" d="M74.79,29.84h8.07l-.78-2.17a10.05,10.05,0,0,1-5.66-2.28Z"/></g></g></svg>
